<svg aria-hidden="true" style="position:absolute;width:0;height:0;overflow:hidden" xmlns="http://www.w3.org/2000/svg">
  <defs>
    <symbol id="icon-logo-film" viewBox="0 0 32 32">
      <path fill="none" stroke="#fff" style="stroke:var(--color1, #fff)" stroke-linejoin="round" stroke-linecap="round" stroke-width="2.17" d="M26.427 2.667H5.574a2.907 2.907 0 0 0-2.907 2.907v20.853a2.908 2.908 0 0 0 2.907 2.907h20.853a2.908 2.908 0 0 0 2.907-2.907V5.574a2.908 2.908 0 0 0-2.907-2.907zm-17.094 0v26.666M22.667 2.667v26.666M2.667 16h26.666M2.667 9.334h6.666M2.667 22.666h6.666m13.334 0h6.666M22.667 9.334h6.666"/>
    </symbol>
    <symbol id="icon-arrow" viewBox="0 0 32 32">
      <path stroke-linejoin="round" stroke-linecap="round" stroke-width="2.667" d="M25.333 16H6.666M16 25.333 6.667 16 16 6.667"/>
    </symbol>
    <symbol id="icon-heart" viewBox="0 0 34 32">
      <path fill="#b92f2c" style="fill:var(--color2, #b92f2c)" d="m17.231 31.705-2.412-2.412C5.859 21.367.001 16.025.001 9.478.001 4.136 4.136.001 9.478.001c2.929 0 5.858 1.378 7.754 3.618 1.895-2.24 4.825-3.618 7.754-3.618 5.342 0 9.477 4.135 9.477 9.477 0 6.548-5.858 11.889-14.818 19.815l-2.412 2.412z"/>
    </symbol>
    <symbol id="icon-close" viewBox="0 0 32 32">
      <path stroke-width="2.133" d="m8.533 8.533 14.933 14.933m-14.933.001L23.466 8.534"/>
    </symbol>
    <symbol id="icon-search" viewBox="0 0 32 32">
      <path d="m31.008 27.231-7.58-6.447c-.784-.705-1.622-1.029-2.299-.998a11.954 11.954 0 0 0 2.87-7.787c0-6.627-5.373-12-12-12s-12 5.373-12 12 5.373 12 12 12c2.972 0 5.691-1.081 7.787-2.87-.031.677.293 1.515.998 2.299l6.447 7.58c1.104 1.226 2.907 1.33 4.007.23s.997-2.903-.23-4.007zM12 20a8 8 0 1 1 0-16 8 8 0 0 1 0 16z"/>
    </symbol>
    <symbol id="icon-moon-fill" viewBox="0 0 32 32">
      <path d="M24.633 22.184c-8.188 0-14.82-6.637-14.82-14.82 0-2.695 0.773-5.188 2.031-7.363-6.824 1.968-11.844 8.187-11.844 15.644 0 9.031 7.32 16.355 16.352 16.355 7.457 0 13.68-5.023 15.648-11.844-2.18 1.254-4.672 2.028-7.367 2.028z"></path>
    </symbol>
    <symbol id="icon-brightness-contrast" viewBox="0 0 32 32">
      <path d="M16 8c-4.418 0-8 3.582-8 8s3.582 8 8 8 8-3.582 8-8-3.582-8-8-8zM16 21v-10c2.757 0 5 2.243 5 5s-2.243 5-5 5zM16 26c1.105 0 2 0.895 2 2v2c0 1.105-0.895 2-2 2s-2-0.895-2-2v-2c0-1.105 0.895-2 2-2zM16 6c-1.105 0-2-0.895-2-2v-2c0-1.105 0.895-2 2-2s2 0.895 2 2v2c0 1.105-0.895 2-2 2zM30 14c1.105 0 2 0.895 2 2s-0.895 2-2 2h-2c-1.105 0-2-0.895-2-2s0.895-2 2-2h2zM6 16c0 1.105-0.895 2-2 2h-2c-1.105 0-2-0.895-2-2s0.895-2 2-2h2c1.105 0 2 0.895 2 2zM25.899 23.071l1.414 1.414c0.781 0.781 0.781 2.047 0 2.828s-2.047 0.781-2.828 0l-1.414-1.414c-0.781-0.781-0.781-2.047 0-2.828s2.047-0.781 2.828 0zM6.101 8.929l-1.414-1.414c-0.781-0.781-0.781-2.047 0-2.828s2.047-0.781 2.828 0l1.414 1.414c0.781 0.781 0.781 2.047 0 2.828s-2.047 0.781-2.828 0zM25.899 8.929c-0.781 0.781-2.047 0.781-2.828 0s-0.781-2.047 0-2.828l1.414-1.414c0.781-0.781 2.047-0.781 2.828 0s0.781 2.047 0 2.828l-1.414 1.414zM6.101 23.071c0.781-0.781 2.047-0.781 2.828 0s0.781 2.047 0 2.828l-1.414 1.414c-0.781 0.781-2.047 0.781-2.828 0s-0.781-2.047 0-2.828l1.414-1.414z"></path>
    </symbol>
  </defs>
</svg>
