<svg aria-hidden="true" style="position:absolute;width:0;height:0;overflow:hidden" xmlns="http://www.w3.org/2000/svg">
  <defs>
    <symbol id="icon-logo-film" viewBox="0 0 32 32">
      <path fill="none" stroke="#fff" style="stroke:var(--color1, #fff)" stroke-linejoin="round" stroke-linecap="round" stroke-width="2.17" d="M26.427 2.667H5.574a2.907 2.907 0 0 0-2.907 2.907v20.853a2.908 2.908 0 0 0 2.907 2.907h20.853a2.908 2.908 0 0 0 2.907-2.907V5.574a2.908 2.908 0 0 0-2.907-2.907zm-17.094 0v26.666M22.667 2.667v26.666M2.667 16h26.666M2.667 9.334h6.666M2.667 22.666h6.666m13.334 0h6.666M22.667 9.334h6.666"/>
    </symbol>
    <symbol id="icon-arrow" viewBox="0 0 32 32">
      <path stroke-linejoin="round" stroke-linecap="round" stroke-width="2.667" d="M25.333 16H6.666M16 25.333 6.667 16 16 6.667"/>
    </symbol>
    <symbol id="icon-heart" viewBox="0 0 34 32">
      <path fill="#b92f2c" style="fill:var(--color2, #b92f2c)" d="m17.231 31.705-2.412-2.412C5.859 21.367.001 16.025.001 9.478.001 4.136 4.136.001 9.478.001c2.929 0 5.858 1.378 7.754 3.618 1.895-2.24 4.825-3.618 7.754-3.618 5.342 0 9.477 4.135 9.477 9.477 0 6.548-5.858 11.889-14.818 19.815l-2.412 2.412z"/>
    </symbol>
    <symbol id="icon-close" viewBox="0 0 32 32">
      <path stroke-width="2.133" d="m8.533 8.533 14.933 14.933m-14.933.001L23.466 8.534"/>
    </symbol>
    <symbol id="icon-search" viewBox="0 0 32 32">
      <path d="m31.008 27.231-7.58-6.447c-.784-.705-1.622-1.029-2.299-.998a11.954 11.954 0 0 0 2.87-7.787c0-6.627-5.373-12-12-12s-12 5.373-12 12 5.373 12 12 12c2.972 0 5.691-1.081 7.787-2.87-.031.677.293 1.515.998 2.299l6.447 7.58c1.104 1.226 2.907 1.33 4.007.23s.997-2.903-.23-4.007zM12 20a8 8 0 1 1 0-16 8 8 0 0 1 0 16z"/>
    </symbol>
    <symbol id="icon-sun" viewBox="0 0 40 40">
      <path d="M20 28c-4.418 0-8-3.582-8-8s3.582-8 8-8v0c4.418 0 8 3.582 8 8s-3.582 8-8 8v0zM18 2c0-1.105 0.895-2 2-2s2 0.895 2 2v0 4c0 1.105-0.895 2-2 2s-2-0.895-2-2v0-4zM31.3 5.88c0.369-0.429 0.913-0.699 1.519-0.699 1.105 0 2 0.895 2 2 0 0.607-0.27 1.15-0.696 1.517l-0.003 0.002-2.8 2.8c-0.369 0.429-0.913 0.699-1.519 0.699-1.105 0-2-0.895-2-2 0-0.607 0.27-1.15 0.696-1.517l0.003-0.002 2.8-2.8zM37.98 18c1.105 0 2 0.895 2 2s-0.895 2-2 2v0h-3.96c-1.105 0-2-0.895-2-2s0.895-2 2-2v0h3.96zM34.12 31.3c0.429 0.369 0.699 0.913 0.699 1.519 0 1.105-0.895 2-2 2-0.607 0-1.15-0.27-1.517-0.696l-0.002-0.003-2.8-2.8c-0.429-0.369-0.699-0.913-0.699-1.519 0-1.105 0.895-2 2-2 0.607 0 1.15 0.27 1.517 0.696l0.002 0.003 2.8 2.8zM22 37.98c0 1.105-0.895 2-2 2s-2-0.895-2-2v0-3.96c0-1.105 0.895-2 2-2s2 0.895 2 2v0 3.96zM8.7 34.12c-0.369 0.429-0.912 0.699-1.519 0.699-1.105 0-2-0.895-2-2 0-0.607 0.27-1.15 0.696-1.517l0.003-0.002 2.8-2.8c0.369-0.429 0.913-0.699 1.519-0.699 1.105 0 2 0.895 2 2 0 0.607-0.27 1.15-0.696 1.517l-0.003 0.002-2.8 2.8zM2.020 22c-1.105 0-2-0.895-2-2s0.895-2 2-2v0h3.96c1.105 0 2 0.895 2 2s-0.895 2-2 2v0h-3.96zM5.88 8.7c-0.429-0.369-0.699-0.912-0.699-1.519 0-1.105 0.895-2 2-2 0.607 0 1.15 0.27 1.517 0.696l0.002 0.003 2.8 2.8c0.429 0.369 0.699 0.913 0.699 1.519 0 1.105-0.895 2-2 2-0.607 0-1.15-0.27-1.517-0.696l-0.002-0.003-2.8-2.8z"></path>
    </symbol>
    <symbol id="icon-moon" viewBox="0 0 32 32">
      <path d="M10.895 7.574c0 7.55 5.179 13.67 11.567 13.67 1.588 0 3.101-0.38 4.479-1.063-1.695 4.46-5.996 7.636-11.051 7.636-6.533 0-11.83-5.297-11.83-11.83 0-4.82 2.888-8.959 7.023-10.803-0.116 0.778-0.188 1.573-0.188 2.39z"></path>
    </symbol>
    <!-- <symbol id="icon-search" viewBox="0 0 32 32">
<path stroke-linejoin="round" stroke-linecap="round" stroke-miterlimit="4" stroke-width="2" d="M14.667 25.333c5.891 0 10.667-4.776 10.667-10.667s-4.776-10.667-10.667-10.667c-5.891 0-10.667 4.776-10.667 10.667s4.776 10.667 10.667 10.667z"></path>
<path stroke-linejoin="round" stroke-linecap="round" stroke-miterlimit="4" stroke-width="2" d="M28 28l-5.8-5.8"></path>
</symbol>  -->
  </defs>
</svg>
